<?xml version='1.0' encoding='ASCII' standalone='yes'?>
<svg xmlns="http://www.w3.org/2000/svg" xmlns:xlink="http://www.w3.org/1999/xlink" width="886pt" height="814pt" viewBox="-5 5 886.0 814.0">
<g id="graph0" class="graph" transform="translate(0, 814.0)">
<title>valve</title>
<polygon fill="white" stroke="transparent" points="-5,5 -5,-809.0 881.0,-809.0 881.0,5 -5,5"/>
<!-- closed -->
<g id="node1" class="node">
<title>closed</title>
<ellipse fill="none" stroke="black" cx="432.37" cy="-59.5" rx="59.5" ry="59.5"/>
<text text-anchor="start" x="409.37" y="-79.2" font-family="Times,serif" font-size="14.00">closed</text>
<text text-anchor="start" x="398.37" y="-64.2" font-family="Times,serif" font-size="14.00">__________</text>
<text text-anchor="start" x="401.37" y="-32.4" font-family="Times,serif" font-size="14.00">[] | None</text>
</g>
<!-- opening -->
<g id="node2" class="node">
<title>opening</title>
<ellipse fill="none" stroke="black" cx="94" cy="-397.86" rx="94" ry="94"/>
<text text-anchor="start" x="65" y="-417.56" font-family="Times,serif" font-size="14.00">opening</text>
<text text-anchor="start" x="60" y="-402.56" font-family="Times,serif" font-size="14.00">__________</text>
<text text-anchor="start" x="35.5" y="-370.76" font-family="Times,serif" font-size="14.00">[div(1,4)] | None</text>
</g>
<!-- closed&#45;&gt;opening -->
<g id="edge1" class="edge">
<title>closed-&gt;opening</title>
<path fill="none" stroke="black" d="M390.19,-101.67C334.63,-157.22 236.03,-255.82 167.94,-323.91"/>
<polygon fill="black" stroke="black" points="165.22,-321.69 160.62,-331.23 170.17,-326.64 165.22,-321.69"/>
<text text-anchor="middle" x="275.91273398020144" y="-237.40811013973507" font-family="Times,serif" font-size="14.00" transform="rotate(44.999153343585945, 275.91273398020144, -237.40811013973507)">can_open []</text>
</g>
<!-- closing -->
<g id="node3" class="node">
<title>closing</title>
<ellipse fill="none" stroke="black" cx="770.73" cy="-397.86" rx="97" ry="97"/>
<text text-anchor="start" x="745.23" y="-417.56" font-family="Times,serif" font-size="14.00">closing</text>
<text text-anchor="start" x="736.73" y="-402.56" font-family="Times,serif" font-size="14.00">__________</text>
<text text-anchor="start" x="710.23" y="-370.76" font-family="Times,serif" font-size="14.00">[div(-1,4)] | None</text>
</g>
<!-- opening&#45;&gt;closing -->
<g id="edge2" class="edge">
<title>opening-&gt;closing</title>
<path fill="none" stroke="black" d="M187.73,-406.86C312.58,-406.86 532.88,-406.86 663.97,-406.86"/>
<polygon fill="black" stroke="black" points="664.04,-410.36 674.04,-406.86 664.03,-403.36 664.04,-410.36"/>
<text text-anchor="middle" x="432.365" y="-411.86" font-family="Times,serif" font-size="14.00" transform="rotate(0.0, 432.365, -411.86)">can_close []</text>
</g>
<!-- opened -->
<g id="node4" class="node">
<title>opened</title>
<ellipse fill="none" stroke="black" cx="432.37" cy="-736.22" rx="59.5" ry="59.5"/>
<text text-anchor="start" x="406.37" y="-755.92" font-family="Times,serif" font-size="14.00">opened</text>
<text text-anchor="start" x="398.37" y="-740.92" font-family="Times,serif" font-size="14.00">__________</text>
<text text-anchor="start" x="401.37" y="-709.12" font-family="Times,serif" font-size="14.00">[] | None</text>
</g>
<!-- opening&#45;&gt;opened -->
<g id="edge3" class="edge">
<title>opening-&gt;opened</title>
<path fill="none" stroke="black" d="M160.84,-464.71C226.23,-530.09 324.27,-628.13 382.93,-686.78"/>
<polygon fill="black" stroke="black" points="380.68,-689.49 390.22,-694.08 385.63,-684.54 380.68,-689.49"/>
<text text-anchor="middle" x="250.4572660197986" y="-575.768110139735" font-family="Times,serif" font-size="14.00" transform="rotate(-44.99915334358594, 250.4572660197986, -575.768110139735)">stop_opening [URG]</text>
</g>
<!-- closing&#45;&gt;closed -->
<g id="edge4" class="edge">
<title>closing-&gt;closed</title>
<path fill="none" stroke="black" d="M701.85,-328.98C636.42,-263.57 539.71,-166.85 481.68,-108.82"/>
<polygon fill="black" stroke="black" points="484,-106.2 474.45,-101.59 479.04,-111.14 484,-106.2"/>
<text text-anchor="middle" x="588.8220779386421" y="-237.40792206135785" font-family="Times,serif" font-size="14.00" transform="rotate(-45.0, 588.8220779386421, -237.40792206135785)">stop_closing [URG]</text>
</g>
<!-- closing&#45;&gt;opening -->
<g id="edge5" class="edge">
<title>closing-&gt;opening</title>
<path fill="none" stroke="black" d="M674.12,-388.86C547.89,-388.86 327.71,-388.86 197.96,-388.86"/>
<polygon fill="black" stroke="black" points="197.63,-385.36 187.62,-388.86 197.62,-392.36 197.63,-385.36"/>
<text text-anchor="middle" x="432.365" y="-375.86" font-family="Times,serif" font-size="14.00" transform="rotate(0.0, 432.365, -375.86)">can_open []</text>
</g>
<!-- opened&#45;&gt;closing -->
<g id="edge6" class="edge">
<title>opened-&gt;closing</title>
<path fill="none" stroke="black" d="M474.52,-694.05C529.57,-639.01 626.88,-541.71 694.88,-473.7"/>
<polygon fill="black" stroke="black" points="697.6,-475.93 702.19,-466.38 692.65,-470.98 697.6,-475.93"/>
<text text-anchor="middle" x="614.2779220613578" y="-575.7679220613578" font-family="Times,serif" font-size="14.00" transform="rotate(45.0, 614.2779220613578, -575.7679220613578)">can_close []</text>
</g>
</g>
</svg>
