<?xml version='1.0' encoding='ASCII' standalone='yes'?>
<svg xmlns="http://www.w3.org/2000/svg" xmlns:xlink="http://www.w3.org/1999/xlink" width="611pt" height="137pt" viewBox="-5 5 611.9900251256249 137.0">
<g id="graph0" class="graph" transform="translate(0, 137.0)">
<title>controller</title>
<polygon fill="white" stroke="transparent" points="-5,5 -5,-132.0 606.9900251256249,-132.0 606.9900251256249,5 -5,5"/>
<!-- falling -->
<g id="node1" class="node">
<title>falling</title>
<ellipse fill="none" stroke="black" cx="59.5" cy="-59.5" rx="59.5" ry="59.5"/>
<text text-anchor="start" x="36.5" y="-79.2" font-family="Times,serif" font-size="14.00">falling</text>
<text text-anchor="start" x="25.5" y="-64.2" font-family="Times,serif" font-size="14.00">__________</text>
<text text-anchor="start" x="28.5" y="-32.4" font-family="Times,serif" font-size="14.00">[] | None</text>
</g>
<!-- falling&#45;&gt;falling -->
<g id="edge1" class="edge">
<title>falling-&gt;falling</title>
<path fill="none" stroke="black" d="M118.55,-65.88C129.33,-65.07 136.89,-62.95 136.89,-59.5 136.89,-57.29 133.79,-55.63 128.73,-54.5" transform="rotate(-45.0, 59.5, -59.5)"/>
<polygon fill="black" stroke="black" points="128.93,-51 118.55,-53.12 127.99,-57.93 128.93,-51" transform="rotate(-45.0, 59.5, -59.5)"/>
<text text-anchor="middle" x="156.64940066721977" y="-124.78756194405459" font-family="Times,serif" font-size="14.00">must_open [INV]</text>
</g>
<!-- rising -->
<g id="node2" class="node">
<title>rising</title>
<ellipse fill="none" stroke="black" cx="441.08" cy="-59.5" rx="59.5" ry="59.5"/>
<text text-anchor="start" x="420.08" y="-79.2" font-family="Times,serif" font-size="14.00">rising</text>
<text text-anchor="start" x="407.08" y="-64.2" font-family="Times,serif" font-size="14.00">__________</text>
<text text-anchor="start" x="410.08" y="-32.4" font-family="Times,serif" font-size="14.00">[] | None</text>
</g>
<!-- falling&#45;&gt;rising -->
<g id="edge2" class="edge">
<title>falling-&gt;rising</title>
<path fill="none" stroke="black" d="M118.28,-68.5C186.63,-68.5 299.3,-68.5 371.83,-68.5"/>
<polygon fill="black" stroke="black" points="372.23,-72 382.23,-68.5 372.23,-65 372.23,-72"/>
<text text-anchor="middle" x="250.29" y="-73.5" font-family="Times,serif" font-size="14.00" transform="rotate(0.0, 250.29, -73.5)">can_open [PER]</text>
</g>
<!-- rising&#45;&gt;falling -->
<g id="edge3" class="edge">
<title>rising-&gt;falling</title>
<path fill="none" stroke="black" d="M382.3,-50.5C313.95,-50.5 201.28,-50.5 128.75,-50.5"/>
<polygon fill="black" stroke="black" points="128.35,-47 118.35,-50.5 128.35,-54 128.35,-47"/>
<text text-anchor="middle" x="250.29" y="-37.5" font-family="Times,serif" font-size="14.00" transform="rotate(0.0, 250.29, -37.5)">can_close [PER]</text>
</g>
<!-- rising&#45;&gt;rising -->
<g id="edge4" class="edge">
<title>rising-&gt;rising</title>
<path fill="none" stroke="black" d="M500.14,-65.88C510.92,-65.07 518.48,-62.95 518.48,-59.5 518.48,-57.29 515.38,-55.63 510.31,-54.5" transform="rotate(-45.0, 441.08, -59.5)"/>
<polygon fill="black" stroke="black" points="510.52,-51 500.14,-53.12 509.58,-57.93 510.52,-51" transform="rotate(-45.0, 441.08, -59.5)"/>
<text text-anchor="middle" x="538.590025125625" y="-124.78756194405459" font-family="Times,serif" font-size="14.00">must_close [INV]</text>
</g>
</g>
</svg>
